# xmcd
#
# Track frame offsets:
#	150
#	11135
#	22948
#	34645
#	45598
#	55750
#	70140
#	86630
#	99845
#	114743
#	129603
#	139960
#	153590
#	168448
#	186813
#	196340
#	214053
#	227710
#	239938
#	258538
#	273540
#
# Disc length: 3871
#
# Revision: 2
# Processed by: cddbd v1.5.1PL0 Copyright (c) Steve Scherf et al.
# Submitted via: dBpowerAMP V4.0
# Normalized: r0:DSETVAR1,TDELIM( - ),TSWAP
#
DISCID=2f0f1d15
DTITLE=Various Artist - Country Soft-n-Mellow cd-3
DYEAR=1989
DGENRE=Country
TTITLE0=Patsy Cline - Leavin' on Your Mind
TTITLE1=Johnny Cash - Thanks a Lot
TTITLE2=Bill Anderson - Tip of my Fingers
TTITLE3=Red Foley - Don't Let The Stars Get in Your Eyes
TTITLE4=Sonny James - You're The Only World i Know
TTITLE5=Elvis Presley - Memories
TTITLE6=Elvis Presley - Always on my Mind
TTITLE7=Crystal Gayle - Talking in Your Sleep
TTITLE8=Don Williams - We've Got a Good Fire Going
TTITLE9=Barbara Mandrell - Angel in Your Arms
TTITLE10=Charley Pride - Before The Next Teardrop Falls
TTITLE11=Willie Nelson - Both Sides Now
TTITLE12=Dolly Parton - We'll Sing in The Sunshine
TTITLE13=Steve Wariner - Some Fools Never Learn
TTITLE14=George Strait - Right or Wrong
TTITLE15=Mickey Newbury - She Even Woke me up to Say Goodbye
TTITLE16=ed Bruce - Nights
TTITLE17=Bill Anderson - But You Know i Love You
TTITLE18=Kenny Rogers And The First Edition - I Believe in Music
TTITLE19=George Strait - All my Ex's Live in Texas
TTITLE20=Linda Ronstadt - I'll be Your Baby Tonight
EXTD=
EXTT0=
EXTT1=
EXTT2=
EXTT3=
EXTT4=
EXTT5=
EXTT6=
EXTT7=
EXTT8=
EXTT9=
EXTT10=
EXTT11=
EXTT12=
EXTT13=
EXTT14=
EXTT15=
EXTT16=
EXTT17=
EXTT18=
EXTT19=
EXTT20=
PLAYORDER=
